<svg width="1000" height="344" viewBox="0 0 1000 344" fill="none" xmlns="http://www.w3.org/2000/svg">
<rect x="22.8163" y="121.102" width="291.347" height="143.918" rx="5.26531" fill="#194291" stroke="#4A83EF" stroke-width="3.5102"/>
<rect x="28.0816" y="126.367" width="14.0408" height="133.388" fill="#F7E89D"/>
<rect x="294.857" y="126.367" width="14.0408" height="133.388" fill="#F7E89D"/>
<path d="M275.578 192.677V198.641H241.368V192.677H275.578ZM261.661 178.108V214.444H255.319V178.108H261.661Z" fill="white"/>
<path d="M89.044 191.923V197.133H54.6961V191.923H89.044Z" fill="white"/>
<rect x="682.735" y="121.102" width="291.347" height="143.918" rx="5.26531" fill="#194291" stroke="#4A83EF" stroke-width="3.5102"/>
<rect x="688" y="126.367" width="14.0408" height="133.388" fill="#F7E89D"/>
<rect x="954.776" y="126.367" width="14.0408" height="133.388" fill="#F7E89D"/>
<path d="M942.517 192.677V198.641H908.306V192.677H942.517ZM928.6 178.108V214.444H922.258V178.108H928.6Z" fill="white"/>
<path d="M755.983 191.923V197.133H721.635V191.923H755.983Z" fill="white"/>
<rect x="465.102" y="93.0204" width="66.6939" height="207.102" rx="5.26531" fill="#FDDA23" stroke="#E0BF11" stroke-width="3.5102"/>
<rect x="475.633" y="215.878" width="66.6939" height="45.6327" rx="5.26531" transform="rotate(-90 475.633 215.878)" fill="#7C7C7C" stroke="#2C2C2C" stroke-width="3.5102"/>
<rect x="428.245" y="119.347" width="140.408" height="140.408" rx="7.02041" stroke="#1CAE45" stroke-width="5.61633" stroke-linecap="round"/>
<path d="M615.99 141.627L665.133 122.961C669.727 121.215 674.646 124.609 674.646 129.523V256.599C674.646 261.513 669.727 264.907 665.133 263.162L615.99 244.495C613.264 243.46 611.462 240.848 611.462 237.932V148.19C611.462 145.275 613.264 142.662 615.99 141.627Z" stroke="#9F9F9F" stroke-width="5.61633" stroke-linecap="round"/>
<path d="M379.84 141.627L330.697 122.961C326.103 121.215 321.184 124.609 321.184 129.523V256.599C321.184 261.513 326.103 264.907 330.697 263.162L379.84 244.495C382.565 243.46 384.367 240.848 384.367 237.932V148.19C384.367 145.275 382.565 142.662 379.84 141.627Z" stroke="#DB170A" stroke-width="5.61633"/>
<path d="M301.878 196.571H321.184" stroke="#DB170A" stroke-width="5.61633" stroke-linecap="round"/>
<path d="M674.646 196.571L695.02 196.571" stroke="#353535" stroke-width="5.61633" stroke-linecap="round"/>
<path d="M385.308 193.061H442.286C446.163 193.061 449.306 196.204 449.306 200.082V207.102H480.898" stroke="#DB170A" stroke-width="5.61633" stroke-linecap="round"/>
<path d="M516 157.959H589.714C593.592 157.959 596.735 161.102 596.735 164.98V189.551C596.735 193.428 599.878 196.571 603.755 196.571H610.745" stroke="#9F9F9F" stroke-width="5.61633" stroke-linecap="round"/>
<path d="M961.796 193.061V224.653C961.796 228.53 958.653 231.673 954.776 231.673H42.1224C38.2452 231.673 35.102 228.53 35.102 224.653V193.061" stroke="#1CAE45" stroke-width="5.61633" stroke-linecap="round"/>
<path d="M510.735 35.102V61.4286H486.163V35.102C486.163 28.3168 491.664 22.8163 498.449 22.8163C505.234 22.8163 510.735 28.3168 510.735 35.102Z" fill="#3C95FE" stroke="#ACD2FF" stroke-width="3.5102"/>
<path d="M477.388 161.469H452.816C448.939 161.469 445.796 158.326 445.796 154.449L445.796 84.2449C445.796 80.3676 448.939 77.2245 452.816 77.2245H484.408C488.285 77.2245 491.429 74.0813 491.429 70.2041V59.6735" stroke="#DB170A" stroke-width="5.61633" stroke-linecap="round"/>
<rect x="395.813" y="176.76" width="39.5049" height="32.602" rx="5.77041" fill="white" stroke="#353535" stroke-width="2.5"/>
<path d="M404.662 205.495V180.627L422.213 193.061L404.662 205.495Z" fill="#353535"/>
<path d="M449.306 200.42V308.898C449.306 312.775 452.449 315.918 456.327 315.918H480.898C484.775 315.918 487.918 312.775 487.918 308.898V298.367" stroke="#DB170A" stroke-width="5.61633" stroke-linecap="round"/>
<path d="M512.49 298.367V308.898C512.49 312.775 515.633 315.918 519.51 315.918H544.082C547.959 315.918 551.102 312.775 551.102 308.898V157.959" stroke="#9F9F9F" stroke-width="5.61633" stroke-linecap="round"/>
<path d="M505.469 59.6735V70.2041C505.469 74.0813 508.613 77.2245 512.49 77.2245H544.082C547.959 77.2245 551.102 80.3676 551.102 84.2449V157.959" stroke="#9F9F9F" stroke-width="5.61633" stroke-linecap="round"/>
<rect x="422.213" y="181.294" width="3.5102" height="23.5355" fill="#353535"/>
<rect x="433.158" y="88.3174" width="25.2766" height="62.0592" rx="5.77041" fill="white" stroke="#353535" stroke-width="2.5"/>
<path d="M445.796 93.5233L446.992 94.8081C447.348 94.4761 447.551 94.0106 447.551 93.5233H445.796ZM438.859 99.9792L437.663 98.6944C437.275 99.0557 437.071 99.5731 437.108 100.102C437.145 100.631 437.419 101.115 437.854 101.418L438.859 99.9792ZM452.733 109.663L453.738 111.102C454.208 110.774 454.488 110.237 454.488 109.663C454.488 109.09 454.208 108.552 453.738 108.224L452.733 109.663ZM438.859 119.347L437.854 117.908C437.384 118.236 437.104 118.773 437.104 119.347C437.104 119.92 437.384 120.458 437.854 120.786L438.859 119.347ZM452.733 129.031L453.738 130.47C454.208 130.142 454.488 129.604 454.488 129.031C454.488 128.457 454.208 127.92 453.738 127.592L452.733 129.031ZM438.859 138.715L437.854 137.275C437.419 137.579 437.145 138.063 437.108 138.592C437.071 139.121 437.275 139.638 437.663 139.999L438.859 138.715ZM445.796 145.171H447.551C447.551 144.683 447.348 144.218 446.992 143.886L445.796 145.171ZM444.6 92.2385L437.663 98.6944L440.055 101.264L446.992 94.8081L444.6 92.2385ZM437.854 101.418L451.728 111.102L453.738 108.224L439.863 98.54L437.854 101.418ZM451.728 108.224L437.854 117.908L439.863 120.786L453.738 111.102L451.728 108.224ZM437.854 120.786L451.728 130.47L453.738 127.592L439.863 117.908L437.854 120.786ZM451.728 127.592L437.854 137.275L439.863 140.154L453.738 130.47L451.728 127.592ZM437.663 139.999L444.6 146.455L446.992 143.886L440.055 137.43L437.663 139.999ZM447.551 93.5233V87.0674H444.041V93.5233H447.551ZM444.041 145.171V151.627H447.551V145.171H444.041Z" fill="#353535"/>
</svg>
